<?xml version="1.0" encoding="UTF-8"?>
<svg version="1.1" xmlns="http://www.w3.org/2000/svg" width="812" height="812">
<rect x="0" y="0" width="812" height="812" rx="80" ry="80" fill="#333333"/>
<path d="M0,0 L136,0 L138,23 L141,47 L146,91 L152,146 L155,169 L157,188 L161,222 L163,243 L167,275 L169,294 L173,329 L176,355 L178,372 L178,377 L360,377 L354,399 L342,439 L333,470 L324,501 L321,509 L302,509 L307,504 L313,497 L313,494 L296,481 L293,481 L286,489 L277,494 L270,496 L261,496 L253,493 L248,487 L246,481 L246,474 L247,473 L276,470 L296,464 L307,458 L314,451 L318,443 L320,430 L318,420 L313,412 L306,406 L294,401 L290,400 L267,400 L254,404 L243,410 L233,419 L223,434 L217,450 L215,464 L215,478 L217,490 L222,502 L226,507 L226,509 L187,509 L193,501 L199,492 L199,488 L179,479 L176,478 L169,488 L164,493 L157,496 L150,496 L142,493 L138,488 L136,480 L138,464 L142,445 L146,435 L151,429 L157,426 L162,425 L169,425 L176,428 L181,436 L182,439 L187,438 L208,430 L207,422 L201,412 L193,406 L182,401 L175,400 L155,400 L143,404 L132,410 L122,419 L115,430 L110,440 L107,450 L105,468 L106,488 L111,500 L116,509 L86,509 L84,496 L81,460 L78,432 L74,385 L-27,385 L-22,373 L-7,342 L1,324 L9,308 L14,297 L67,297 L66,293 L62,236 L60,213 L57,169 L52,104 L52,95 L45,95 L43,101 L27,136 L11,171 L-7,210 L-26,251 L-42,285 L-50,304 L-60,326 L-68,342 L-76,359 L-84,375 L-96,400 L-114,437 L-125,460 L-137,485 L-148,508 L-149,509 L-261,509 L-259,503 L-245,475 L-235,456 L-212,411 L-202,392 L-189,366 L-179,347 L-159,308 L-145,281 L-137,266 L-129,250 L-105,203 L-91,176 L-82,159 L-74,143 L-51,98 L-34,65 L-19,36 L-1,1 Z " fill="#FEFEFE" transform="translate(372,151)"/>
<path d="M0,0 L11,0 L17,3 L19,6 L19,15 L14,21 L4,25 L-14,28 L-20,28 L-18,17 L-13,9 L-5,2 Z " fill="#FBFBFB" transform="translate(642,575)"/>
</svg>
